<svg xmlns="http://www.w3.org/2000/svg" viewBox="0 0 64 64" role="img" aria-label="CloudComment">
  <defs>
    <linearGradient id="cloud-gradient" x1="5" x2="60" y1="21" y2="46" gradientUnits="userSpaceOnUse">
      <stop offset="0" stop-color="#2dd7ff" />
      <stop offset="0.58" stop-color="#1683f5" />
      <stop offset="1" stop-color="#2d42ff" />
    </linearGradient>
    <linearGradient id="bubble-gradient" x1="35" x2="50" y1="35" y2="49" gradientUnits="userSpaceOnUse">
      <stop offset="0" stop-color="#53e2ff" />
      <stop offset="1" stop-color="#2868ff" />
    </linearGradient>
  </defs>
  <path
    fill="url(#cloud-gradient)"
    d="M17.3 48.7C10 48.7 4.5 43.3 4.5 36.6c0-6.4 5-11.7 11.4-12.2C18.9 16.7 26.2 11.3 34.7 11.3c9.1 0 16.8 6.3 18.7 14.8 4.4.9 7.9 4.8 7.9 9.6 0 5.5-4.5 10-10.1 10H42.3l-7.5 6.9v-6.9H17.3Z"
  />
  <path
    fill="url(#bubble-gradient)"
    opacity=".68"
    d="M36.3 28.2h7.6c5.2 0 9.5 3.9 9.5 8.8 0 4.8-4.1 8.6-9.1 8.8l-1.5 6.9-7.3-6.9H30c-5.2 0-9.5-3.9-9.5-8.8s4.3-8.8 9.5-8.8h6.3Z"
  />
  <path
    fill="#fff"
    d="M17.7 24h25.5c5.4 0 9.8 4 9.8 8.9s-4.4 8.9-9.8 8.9H28.4l-8.8 8.1 1.7-8.1h-3.6c-5.4 0-9.8-4-9.8-8.9S12.3 24 17.7 24Z"
  />
  <circle cx="23.6" cy="33" r="2.9" fill="#1250d8" />
  <circle cx="32" cy="33" r="2.9" fill="#1250d8" />
  <circle cx="40.4" cy="33" r="2.9" fill="#1250d8" />
</svg>
